<svg xmlns="http://www.w3.org/2000/svg" width="1054" height="138" viewBox="0 0 1054 138" font-family="ui-monospace,SFMono-Regular,Menlo,monospace">
<rect fill="#0c1210" width="1054" height="138" rx="6"/>
<text x="18" y="26" fill="#e5e9e3" font-size="15" font-weight="700">ROFL</text><text x="72" y="26" fill="#7a867f" font-size="12.5">height 2578 &#183; difficulty 3,000 &#183; 3000 puzzles per block</text><rect x="18" y="44" width="148" height="76" rx="4" fill="#131b17" stroke="#28332e" stroke-width="1"/><text x="29" y="65" fill="#d9a64c" font-size="13" font-weight="700">#2573</text><text x="29" y="81" fill="#e5e9e3" font-size="10">809ba5d27c47e7cb&#8230;</text><text x="29" y="96" fill="#5cab9b" font-size="10.5">@ywltby</text><text x="29" y="110" fill="#7a867f" font-size="9">T1我们明天就把你送回家。</text><line x1="166" y1="82.0" x2="192" y2="82.0" stroke="#38443e" stroke-width="1.5" stroke-dasharray="3 3"/><rect x="192" y="44" width="148" height="76" rx="4" fill="#131b17" stroke="#28332e" stroke-width="1"/><text x="203" y="65" fill="#d9a64c" font-size="13" font-weight="700">#2574</text><text x="203" y="81" fill="#e5e9e3" font-size="10">305f887c1cad2e17&#8230;</text><text x="203" y="96" fill="#5cab9b" font-size="10.5">@hbzhong</text><text x="203" y="110" fill="#7a867f" font-size="9">你负责可爱，显卡负责算得飞快。</text><line x1="340" y1="82.0" x2="366" y2="82.0" stroke="#38443e" stroke-width="1.5" stroke-dasharray="3 3"/><rect x="366" y="44" width="148" height="76" rx="4" fill="#131b17" stroke="#28332e" stroke-width="1"/><text x="377" y="65" fill="#d9a64c" font-size="13" font-weight="700">#2575</text><text x="377" y="81" fill="#e5e9e3" font-size="10">0a4fae43530cdbfd&#8230;</text><text x="377" y="96" fill="#5cab9b" font-size="10.5">@ywltby</text><text x="377" y="110" fill="#7a867f" font-size="9">面善打个D啊，喜欢我的战斗脸吗？</text><line x1="514" y1="82.0" x2="540" y2="82.0" stroke="#38443e" stroke-width="1.5" stroke-dasharray="3 3"/><rect x="540" y="44" width="148" height="76" rx="4" fill="#131b17" stroke="#28332e" stroke-width="1"/><text x="551" y="65" fill="#d9a64c" font-size="13" font-weight="700">#2576</text><text x="551" y="81" fill="#e5e9e3" font-size="10">c79b28ecb9b3cc61&#8230;</text><text x="551" y="96" fill="#5cab9b" font-size="10.5">@ywltby</text><text x="551" y="110" fill="#7a867f" font-size="9">遇到我们的时候，你才是挑战者。</text><line x1="688" y1="82.0" x2="714" y2="82.0" stroke="#38443e" stroke-width="1.5" stroke-dasharray="3 3"/><rect x="714" y="44" width="148" height="76" rx="4" fill="#131b17" stroke="#28332e" stroke-width="1"/><text x="725" y="65" fill="#d9a64c" font-size="13" font-weight="700">#2577</text><text x="725" y="81" fill="#e5e9e3" font-size="10">acbec993890a15e8&#8230;</text><text x="725" y="96" fill="#5cab9b" font-size="10.5">@hbzhong</text><text x="725" y="110" fill="#7a867f" font-size="9">看似在等，其实已经偷偷写下一题。</text><line x1="862" y1="82.0" x2="888" y2="82.0" stroke="#38443e" stroke-width="1.5" stroke-dasharray="3 3"/><rect x="888" y="44" width="148" height="76" rx="4" fill="#131b17" stroke="#28332e" stroke-width="1"/><text x="899" y="65" fill="#d9a64c" font-size="13" font-weight="700">#2578</text><text x="899" y="81" fill="#e5e9e3" font-size="10">dba9ce60c0d7c8aa&#8230;</text><text x="899" y="96" fill="#5cab9b" font-size="10.5">@ywltby</text><text x="899" y="110" fill="#7a867f" font-size="9">以前说拿了世界冠军就不骂我了，</text></svg>
