<svg xmlns="http://www.w3.org/2000/svg" width="1054" height="138" viewBox="0 0 1054 138" font-family="ui-monospace,SFMono-Regular,Menlo,monospace">
<rect fill="#0c1210" width="1054" height="138" rx="6"/>
<text x="18" y="26" fill="#e5e9e3" font-size="15" font-weight="700">ROFL</text><text x="72" y="26" fill="#7a867f" font-size="12.5">height 2878 &#183; difficulty 1,090 &#183; 1090 puzzles per block</text><rect x="18" y="44" width="148" height="76" rx="4" fill="#131b17" stroke="#28332e" stroke-width="1"/><text x="29" y="65" fill="#d9a64c" font-size="13" font-weight="700">#2873</text><text x="29" y="81" fill="#e5e9e3" font-size="10">a1c550938080bb4c&#8230;</text><text x="29" y="96" fill="#5cab9b" font-size="10.5">@hbzhong</text><text x="29" y="110" fill="#7a867f" font-size="9">故事还在路演，区块已经交卷。</text><line x1="166" y1="82.0" x2="192" y2="82.0" stroke="#38443e" stroke-width="1.5" stroke-dasharray="3 3"/><rect x="192" y="44" width="148" height="76" rx="4" fill="#131b17" stroke="#28332e" stroke-width="1"/><text x="203" y="65" fill="#d9a64c" font-size="13" font-weight="700">#2874</text><text x="203" y="81" fill="#e5e9e3" font-size="10">5e84baa38dc11e85&#8230;</text><text x="203" y="96" fill="#5cab9b" font-size="10.5">@hbzhong</text><text x="203" y="110" fill="#7a867f" font-size="9">嘴上少加杠杆，显卡多加散热。</text><line x1="340" y1="82.0" x2="366" y2="82.0" stroke="#38443e" stroke-width="1.5" stroke-dasharray="3 3"/><rect x="366" y="44" width="148" height="76" rx="4" fill="#131b17" stroke="#28332e" stroke-width="1"/><text x="377" y="65" fill="#d9a64c" font-size="13" font-weight="700">#2875</text><text x="377" y="81" fill="#e5e9e3" font-size="10">63acada7bd4a88b7&#8230;</text><text x="377" y="96" fill="#5cab9b" font-size="10.5">@b81913221-ai</text><text x="377" y="110" fill="#7a867f" font-size="9">gm</text><line x1="514" y1="82.0" x2="540" y2="82.0" stroke="#38443e" stroke-width="1.5" stroke-dasharray="3 3"/><rect x="540" y="44" width="148" height="76" rx="4" fill="#131b17" stroke="#28332e" stroke-width="1"/><text x="551" y="65" fill="#d9a64c" font-size="13" font-weight="700">#2876</text><text x="551" y="81" fill="#e5e9e3" font-size="10">34c7c9f6d2670dae&#8230;</text><text x="551" y="96" fill="#5cab9b" font-size="10.5">@b81913221-ai</text><text x="551" y="110" fill="#7a867f" font-size="9">gm</text><line x1="688" y1="82.0" x2="714" y2="82.0" stroke="#38443e" stroke-width="1.5" stroke-dasharray="3 3"/><rect x="714" y="44" width="148" height="76" rx="4" fill="#131b17" stroke="#28332e" stroke-width="1"/><text x="725" y="65" fill="#d9a64c" font-size="13" font-weight="700">#2877</text><text x="725" y="81" fill="#e5e9e3" font-size="10">3bde92a17a895fcb&#8230;</text><text x="725" y="96" fill="#5cab9b" font-size="10.5">@sd5884703</text><text x="725" y="110" fill="#7a867f" font-size="9">社会实验·连续挖矿</text><line x1="862" y1="82.0" x2="888" y2="82.0" stroke="#38443e" stroke-width="1.5" stroke-dasharray="3 3"/><rect x="888" y="44" width="148" height="76" rx="4" fill="#131b17" stroke="#28332e" stroke-width="1"/><text x="899" y="65" fill="#d9a64c" font-size="13" font-weight="700">#2878</text><text x="899" y="81" fill="#e5e9e3" font-size="10">eab3e428f10a0ff7&#8230;</text><text x="899" y="96" fill="#5cab9b" font-size="10.5">@b81913221-ai</text><text x="899" y="110" fill="#7a867f" font-size="9">gm</text></svg>
